<svg id="visual" viewBox="0 0 900 600" width="900" height="600" xmlns="http://www.w3.org/2000/svg" xmlns:xlink="http://www.w3.org/1999/xlink" version="1.1"><rect x="0" y="0" width="900" height="600" fill="#FFFFFF"></rect><defs><linearGradient id="grad1_0" x1="33.3%" y1="100%" x2="100%" y2="0%"><stop offset="20%" stop-color="#ffffff" stop-opacity="1"></stop><stop offset="80%" stop-color="#ffffff" stop-opacity="1"></stop></linearGradient></defs><defs><linearGradient id="grad2_0" x1="0%" y1="100%" x2="66.7%" y2="0%"><stop offset="20%" stop-color="#ffffff" stop-opacity="1"></stop><stop offset="80%" stop-color="#ffffff" stop-opacity="1"></stop></linearGradient></defs><g transform="translate(900, 600)"><path d="M-254 0C-245 -20.6 -236.1 -41.2 -227 -60.8C-217.9 -80.5 -208.7 -99.3 -195.7 -113C-182.7 -126.7 -165.9 -135.5 -157.7 -157.7C-149.5 -179.9 -149.9 -215.6 -135.2 -234.2C-120.5 -252.8 -90.8 -254.2 -65.7 -245.3C-40.7 -236.5 -20.3 -217.2 0 -198L0 0Z" fill="#d1d1c4"></path></g><g transform="translate(0, 0)"><path d="M270.4 0C259.3 23.5 248.2 47.1 228.9 61.3C209.7 75.6 182.4 80.7 176.7 102C171 123.3 187 161 177.5 177.5C168 194 133.1 189.3 107.5 186.2C81.9 183.1 65.5 181.6 49.2 183.5C32.8 185.4 16.4 190.7 0 196L0 0Z" fill="#d1d1c4"></path></g></svg>