<?xml version="1.0" standalone="no"?><svg xmlns="http://www.w3.org/2000/svg" viewBox="0 0 1440 320"><path fill="#eeeeee" fill-opacity="1" d="M0,32L6.2,80C12.3,128,25,224,37,256C49.2,288,62,256,74,208C86.2,160,98,96,111,80C123.1,64,135,96,148,106.7C160,117,172,107,185,96C196.9,85,209,75,222,96C233.8,117,246,171,258,170.7C270.8,171,283,117,295,90.7C307.7,64,320,64,332,64C344.6,64,357,64,369,80C381.5,96,394,128,406,154.7C418.5,181,431,203,443,181.3C455.4,160,468,96,480,64C492.3,32,505,32,517,42.7C529.2,53,542,75,554,80C566.2,85,578,75,591,74.7C603.1,75,615,85,628,101.3C640,117,652,139,665,128C676.9,117,689,75,702,80C713.8,85,726,139,738,154.7C750.8,171,763,149,775,149.3C787.7,149,800,171,812,170.7C824.6,171,837,149,849,149.3C861.5,149,874,171,886,181.3C898.5,192,911,192,923,181.3C935.4,171,948,149,960,128C972.3,107,985,85,997,96C1009.2,107,1022,149,1034,186.7C1046.2,224,1058,256,1071,272C1083.1,288,1095,288,1108,282.7C1120,277,1132,267,1145,261.3C1156.9,256,1169,256,1182,250.7C1193.8,245,1206,235,1218,197.3C1230.8,160,1243,96,1255,112C1267.7,128,1280,224,1292,234.7C1304.6,245,1317,171,1329,165.3C1341.5,160,1354,224,1366,224C1378.5,224,1391,160,1403,138.7C1415.4,117,1428,139,1434,149.3L1440,160L1440,320L1433.8,320C1427.7,320,1415,320,1403,320C1390.8,320,1378,320,1366,320C1353.8,320,1342,320,1329,320C1316.9,320,1305,320,1292,320C1280,320,1268,320,1255,320C1243.1,320,1231,320,1218,320C1206.2,320,1194,320,1182,320C1169.2,320,1157,320,1145,320C1132.3,320,1120,320,1108,320C1095.4,320,1083,320,1071,320C1058.5,320,1046,320,1034,320C1021.5,320,1009,320,997,320C984.6,320,972,320,960,320C947.7,320,935,320,923,320C910.8,320,898,320,886,320C873.8,320,862,320,849,320C836.9,320,825,320,812,320C800,320,788,320,775,320C763.1,320,751,320,738,320C726.2,320,714,320,702,320C689.2,320,677,320,665,320C652.3,320,640,320,628,320C615.4,320,603,320,591,320C578.5,320,566,320,554,320C541.5,320,529,320,517,320C504.6,320,492,320,480,320C467.7,320,455,320,443,320C430.8,320,418,320,406,320C393.8,320,382,320,369,320C356.9,320,345,320,332,320C320,320,308,320,295,320C283.1,320,271,320,258,320C246.2,320,234,320,222,320C209.2,320,197,320,185,320C172.3,320,160,320,148,320C135.4,320,123,320,111,320C98.5,320,86,320,74,320C61.5,320,49,320,37,320C24.6,320,12,320,6,320L0,320Z"></path></svg>